# xmcd CD database file generated by OrangeCD 6.1
#
# Track frame offsets:
#	182
#	26777
#	38457
#	51022
#	72457
#	84700
#	99015
#	110067
#	124817
#	137427
#	150292
#	165122
#	179337
#	192982
#	205375
#
# Disc length: 2931 seconds
#
# Revision: 0
# Processed by: cddbd v1.5.2PL0 Copyright (c) Steve Scherf et al.
# Submitted via: OrangeCD 6.1
#
DISCID=be0b710f
DTITLE=QUEI ROMANTICI SCATENATI ANNI '50 - 39A - I've gotta right to sing the b
DTITLE=lues
DYEAR=1900
DGENRE=
TTITLE0=Billie Holiday - I've gotta right to sing the blues
TTITLE1=Muddy Waters - Gypsy woman
TTITLE2=John Lee Hooker - Walking the boogie
TTITLE3=Dina Washington - Blackwater blues
TTITLE4=Ike Turner - Prancin'
TTITLE5=Sonny Boy Williamson II - Help me
TTITLE6=J.B. Lenoir - Mama talk to your daughter
TTITLE7=Robert Nighthawk - Anna Lee
TTITLE8=Jimmy Rogers - That's all right
TTITLE9=Jackie Brenston - Rocket 88
TTITLE10=Eddie Boyd - Third degree
TTITLE11=Buddy Guy - Sit and cry
TTITLE12=Junior Wells - Junior's wall
TTITLE13=Little Walter - Last night
TTITLE14=Otis Spann - My home is in the Delta
EXTD=
EXTT0=
EXTT1=
EXTT2=
EXTT3=
EXTT4=
EXTT5=
EXTT6=
EXTT7=
EXTT8=
EXTT9=
EXTT10=
EXTT11=
EXTT12=
EXTT13=
EXTT14=
PLAYORDER=
